solid OpenSCAD_Model
  facet normal -1 0 0
    outer loop
      vertex 0 0 0
      vertex 0 20 20
      vertex 0 20 0
    endloop
  endfacet
  facet normal -1 -0 0
    outer loop
      vertex 0 20 20
      vertex 0 0 0
      vertex 0 0 20
    endloop
  endfacet
  facet normal -0 0 1
    outer loop
      vertex 2 18 2
      vertex 18 2 2
      vertex 18 18 2
    endloop
  endfacet
  facet normal 0 0 1
    outer loop
      vertex 18 2 2
      vertex 2 18 2
      vertex 2 2 2
    endloop
  endfacet
  facet normal 1 -0 0
    outer loop
      vertex 20 0 20
      vertex 20 20 0
      vertex 20 20 20
    endloop
  endfacet
  facet normal 1 0 0
    outer loop
      vertex 20 20 0
      vertex 20 0 20
      vertex 20 0 0
    endloop
  endfacet
  facet normal 0 1 -0
    outer loop
      vertex 20 20 0
      vertex 0 20 20
      vertex 20 20 20
    endloop
  endfacet
  facet normal 0 1 0
    outer loop
      vertex 0 20 20
      vertex 20 20 0
      vertex 0 20 0
    endloop
  endfacet
  facet normal 0 0 -1
    outer loop
      vertex 0 0 0
      vertex 20 20 0
      vertex 20 0 0
    endloop
  endfacet
  facet normal -0 0 -1
    outer loop
      vertex 20 20 0
      vertex 0 0 0
      vertex 0 20 0
    endloop
  endfacet
  facet normal 0 -1 0
    outer loop
      vertex 0 0 0
      vertex 20 0 20
      vertex 0 0 20
    endloop
  endfacet
  facet normal 0 -1 -0
    outer loop
      vertex 20 0 20
      vertex 0 0 0
      vertex 20 0 0
    endloop
  endfacet
  facet normal 0 0 1
    outer loop
      vertex 20 20 20
      vertex 18 18 20
      vertex 20 0 20
    endloop
  endfacet
  facet normal 0 0 1
    outer loop
      vertex 20 20 20
      vertex 2 18 20
      vertex 18 18 20
    endloop
  endfacet
  facet normal 0 0 1
    outer loop
      vertex 2 18 20
      vertex 0 20 20
      vertex 2 2 20
    endloop
  endfacet
  facet normal -0 0 1
    outer loop
      vertex 0 20 20
      vertex 2 18 20
      vertex 20 20 20
    endloop
  endfacet
  facet normal -0 0 1
    outer loop
      vertex 18 2 20
      vertex 20 0 20
      vertex 18 18 20
    endloop
  endfacet
  facet normal -0 0 1
    outer loop
      vertex 2 2 20
      vertex 20 0 20
      vertex 18 2 20
    endloop
  endfacet
  facet normal 0 0 1
    outer loop
      vertex 2 2 20
      vertex 0 0 20
      vertex 20 0 20
    endloop
  endfacet
  facet normal 0 0 1
    outer loop
      vertex 0 0 20
      vertex 2 2 20
      vertex 0 20 20
    endloop
  endfacet
  facet normal 1 -0 0
    outer loop
      vertex 2 2 20
      vertex 2 18 2
      vertex 2 18 20
    endloop
  endfacet
  facet normal 1 0 0
    outer loop
      vertex 2 18 2
      vertex 2 2 20
      vertex 2 2 2
    endloop
  endfacet
  facet normal -1 0 0
    outer loop
      vertex 18 2 2
      vertex 18 18 20
      vertex 18 18 2
    endloop
  endfacet
  facet normal -1 -0 0
    outer loop
      vertex 18 18 20
      vertex 18 2 2
      vertex 18 2 20
    endloop
  endfacet
  facet normal 0 1 -0
    outer loop
      vertex 18 2 2
      vertex 2 2 20
      vertex 18 2 20
    endloop
  endfacet
  facet normal 0 1 0
    outer loop
      vertex 2 2 20
      vertex 18 2 2
      vertex 2 2 2
    endloop
  endfacet
  facet normal 0 -1 0
    outer loop
      vertex 2 18 2
      vertex 18 18 20
      vertex 2 18 20
    endloop
  endfacet
  facet normal 0 -1 -0
    outer loop
      vertex 18 18 20
      vertex 2 18 2
      vertex 18 18 2
    endloop
  endfacet
endsolid OpenSCAD_Model
